 http://www.imdb.com/title/tt0061722/

Source: The.Graduate.1967.BluRay.720p.x264.DTS.DD20.DualAudio-MySiLU

Subs: Arabic, Dutch, English, French, Italian, Portuguese, Romanian and Spanish.

Sample and Screens included.

General
Complete name                    : The Graduate-720p MP4 AAC x264 BRRip 1967-CC.mp4
Format                           : MPEG-4
Format profile                   : Base Media
Codec ID                         : isom
File size                        : 1.95 GiB
Duration                         : 1h 45mn
Overall bit rate                 : 2 629 Kbps
Encoded date                     : UTC 2012-06-28 15:02:52

Video
ID                               : 1
Format                           : AVC
Format/Info                      : Advanced Video Codec
Format profile                   : High@L3.1
Format settings, CABAC           : Yes
Format settings, ReFrames        : 5 frames
Codec ID                         : avc1
Codec ID/Info                    : Advanced Video Coding
Duration                         : 1h 45mn
Bit rate mode                    : Variable
Bit rate                         : 2 302 Kbps
Maximum bit rate                 : 9 756 Kbps
Width                            : 1 280 pixels
Height                           : 544 pixels
Display aspect ratio             : 2.35:1
Frame rate mode                  : Variable
Frame rate                       : 23.976 fps
Minimum frame rate               : 19.048 fps
Maximum frame rate               : 24.390 fps
Resolution                       : 24 bits
Colorimetry                      : 4:2:0
Scan type                        : Progressive
Bits/(Pixel*Frame)               : 0.138
Stream size                      : 1.71 GiB (88%)
Writing library                  : x264 core 112

Audio
ID                               : 2
Format                           : AAC
Format/Info                      : Advanced Audio Codec
Format version                   : Version 4
Format profile                   : LC
Format settings, SBR             : No
Codec ID                         : 40
Duration                         : 1h 45mn
Bit rate mode                    : Variable
Bit rate                         : 320 Kbps
Maximum bit rate                 : 412 Kbps
Channel(s)                       : 2 channels
Channel positions                : L R
Sampling rate                    : 48.0 KHz
Resolution                       : 16 bits
Stream size                      : 242 MiB (12%)
Language                         : English


Enjoy...

Requested by varuneric. ( more coming up )